<svg width="16" height="16" viewBox="0 0 16 16" fill="none" xmlns="http://www.w3.org/2000/svg">
<g clip-path="url(#clip0_2419_22381)">
<path d="M7.23873 8.76274C6.45873 7.98274 5.87073 7.10941 5.48007 6.22341C5.3974 6.03608 5.44607 5.81674 5.59073 5.67208L6.13673 5.12674C6.58407 4.67941 6.58407 4.04674 6.1934 3.65608L5.41073 2.87341C4.89007 2.35274 4.04607 2.35274 3.5254 2.87341L3.09073 3.30808C2.59673 3.80208 2.39073 4.51474 2.52407 5.22141C2.8534 6.96341 3.8654 8.87074 5.49807 10.5034C7.13073 12.1361 9.03807 13.1481 10.7801 13.4774C11.4867 13.6107 12.1994 13.4047 12.6934 12.9107L13.1274 12.4767C13.6481 11.9561 13.6481 11.1121 13.1274 10.5914L12.3454 9.80941C11.9547 9.41874 11.3214 9.41874 10.9314 9.80941L10.3294 10.4121C10.1847 10.5567 9.9654 10.6054 9.77807 10.5227C8.89207 10.1314 8.01873 9.54274 7.23873 8.76274Z" stroke="#4153E4" stroke-width="1.5" stroke-linecap="round" stroke-linejoin="round"/>
</g>
<defs>
<clipPath id="clip0_2419_22381">
<rect width="16" height="16" fill="white"/>
</clipPath>
</defs>
</svg>
