<svg width="40" height="40" viewBox="0 0 40 40" fill="none" xmlns="http://www.w3.org/2000/svg">
<path d="M29.1924 8.18604C29.7782 7.60031 30.7277 7.60027 31.3135 8.18604C31.899 8.77182 31.8991 9.72143 31.3135 10.3071L22.1201 19.4995L31.3135 28.6919C31.8992 29.2777 31.8992 30.2282 31.3135 30.814C30.7277 31.3997 29.7772 31.3997 29.1914 30.814L19.999 21.6206L10.8076 30.813C10.2218 31.3988 9.27133 31.3988 8.68555 30.813C8.10004 30.2272 8.10002 29.2776 8.68555 28.6919L17.877 19.4995L8.68555 10.3071C8.09997 9.72133 8.09983 8.77175 8.68555 8.18604C9.27127 7.60035 10.2208 7.60047 10.8066 8.18604L19.999 17.3784L29.1924 8.18604Z" fill="#363636"/>
</svg>
